<svg
    class="logo"
    id="svg"
    version="1.1"
    xmlns="http://www.w3.org/2000/svg"
    width="auto"
    viewBox="0 105 400 200"
>
    <g id="svgg" x="50%" y="50%">
        <path
            class="logo-rest"
            id="path0"
            fill="transparent"
            stroke="#ffffff"
            stroke-width="8"
            d="M332.799 140.100 C 332.798 140.375,331.889 143.480,330.780 147.000 C 329.670 150.520,327.860 156.280,326.758 159.800 C 325.656 163.320,324.508 166.920,324.207 167.800 C 323.907 168.680,322.824 172.100,321.802 175.400 C 320.780 178.700,319.787 181.850,319.594 182.400 C 319.402 182.950,318.411 186.100,317.391 189.400 C 316.371 192.700,315.291 196.120,314.991 197.000 C 314.691 197.880,313.605 201.300,312.577 204.600 C 311.549 207.900,310.298 211.860,309.797 213.400 C 309.295 214.940,308.044 218.900,307.018 222.200 C 305.991 225.500,304.992 228.650,304.798 229.200 C 304.604 229.750,303.615 232.900,302.601 236.200 C 301.587 239.500,300.511 242.920,300.209 243.800 C 299.907 244.680,298.810 248.100,297.770 251.400 C 296.730 254.700,295.689 257.707,295.455 258.082 C 294.716 259.268,295.476 259.397,303.933 259.526 C 314.583 259.689,313.781 260.069,315.629 253.968 C 316.456 251.236,317.703 247.200,318.399 245.000 C 319.096 242.800,320.362 238.750,321.213 236.000 C 322.063 233.250,323.325 229.200,324.016 227.000 C 324.708 224.800,325.510 222.190,325.800 221.200 C 326.090 220.210,326.892 217.600,327.584 215.400 C 328.275 213.200,329.542 209.150,330.400 206.400 C 331.258 203.650,332.522 199.600,333.210 197.400 C 333.898 195.200,334.878 192.050,335.388 190.400 C 335.897 188.750,337.164 184.700,338.203 181.400 C 339.241 178.100,340.328 174.590,340.619 173.600 C 340.909 172.610,341.698 170.045,342.373 167.900 C 349.123 146.444,349.590 144.774,349.595 142.100 L 349.600 139.600 341.200 139.600 C 334.747 139.600,332.800 139.716,332.799 140.100 M40.400 168.932 C 28.786 176.163,10.868 187.227,5.514 190.473 L 0.027 193.800 0.014 203.300 C 0.006 208.525,0.135 212.800,0.300 212.799 C 0.465 212.799,1.595 212.124,2.811 211.299 C 4.027 210.475,6.721 208.720,8.798 207.400 C 10.875 206.080,14.235 203.920,16.264 202.600 C 18.292 201.280,20.998 199.546,22.276 198.746 C 30.731 193.454,45.553 183.797,46.322 183.080 C 47.326 182.143,47.575 166.553,46.600 165.680 C 46.353 165.458,43.984 166.701,40.400 168.932 M353.067 165.867 C 352.381 166.553,352.782 182.660,353.500 183.281 C 353.885 183.614,357.530 186.010,361.600 188.607 C 365.670 191.204,370.710 194.434,372.800 195.785 C 374.890 197.135,377.998 199.131,379.707 200.220 C 381.416 201.309,384.746 203.463,387.107 205.007 C 393.434 209.144,398.518 212.317,399.306 212.619 C 399.953 212.868,399.999 212.239,399.980 203.343 L 399.961 193.800 398.234 192.944 C 397.285 192.473,395.269 191.282,393.754 190.297 C 390.790 188.371,380.636 182.096,365.600 172.899 C 360.430 169.737,355.712 166.802,355.116 166.375 C 353.965 165.552,353.497 165.436,353.067 165.867 M225.166 178.567 C 225.074 178.659,223.469 178.939,221.599 179.189 C 217.872 179.688,217.683 179.735,211.600 181.648 C 178.191 192.158,161.280 229.429,175.182 261.911 C 181.907 277.623,195.905 290.347,211.800 295.197 C 215.697 296.386,218.879 297.153,220.800 297.366 C 221.790 297.476,223.860 297.748,225.400 297.970 C 228.982 298.487,233.492 298.493,236.800 297.985 C 238.230 297.765,240.660 297.415,242.200 297.207 C 245.164 296.807,247.696 296.220,250.000 295.401 C 250.770 295.127,252.390 294.595,253.600 294.218 C 259.679 292.323,270.219 286.706,273.975 283.359 L 275.200 282.268 275.200 260.734 L 275.200 239.200 268.404 239.200 L 261.608 239.200 261.504 256.681 L 261.400 274.162 259.800 275.249 C 257.408 276.876,251.971 279.483,248.800 280.524 C 242.972 282.439,239.635 283.125,234.755 283.412 C 229.496 283.722,220.103 282.622,219.020 281.569 C 218.811 281.366,218.322 281.200,217.934 281.200 C 216.535 281.200,209.684 277.841,206.202 275.448 C 177.019 255.392,180.569 210.961,212.534 196.192 C 228.687 188.729,250.537 191.688,263.618 203.111 C 267.056 206.113,266.384 206.418,271.800 199.396 C 273.120 197.684,274.425 196.053,274.700 195.771 C 276.607 193.812,267.718 187.381,257.600 183.400 C 256.610 183.010,255.233 182.446,254.540 182.146 C 253.846 181.846,253.060 181.600,252.793 181.600 C 252.526 181.600,251.473 181.339,250.454 181.020 C 244.666 179.209,238.797 178.400,231.441 178.400 C 228.082 178.400,225.258 178.475,225.166 178.567 M29.000 213.752 C 16.935 222.096,17.358 221.478,21.693 224.423 C 23.072 225.360,25.550 227.057,27.200 228.194 C 28.850 229.332,32.810 232.031,36.000 234.193 C 39.190 236.354,42.648 238.735,43.684 239.484 C 44.721 240.233,46.071 240.880,46.684 240.923 L 47.800 241.000 47.907 232.164 L 48.015 223.328 44.307 220.794 C 38.453 216.793,32.237 212.585,31.800 212.328 C 31.580 212.198,30.320 212.839,29.000 213.752 M361.175 216.848 C 357.559 219.295,354.012 221.736,353.292 222.274 L 351.985 223.252 352.092 232.126 L 352.200 241.000 353.131 240.899 C 353.642 240.844,357.285 238.594,361.225 235.899 C 365.165 233.205,371.178 229.110,374.587 226.800 C 380.117 223.052,382.036 221.279,380.950 220.917 C 380.582 220.794,371.999 214.687,370.143 213.227 C 368.532 211.959,368.207 212.091,361.175 216.848 "
        ></path>
        <path
            class="logo-a"
            id="path2"
            fill="transparent"
            stroke="#00e5ff"
            stroke-width="8"
            d="M118.583 112.302 C 118.158 112.606,117.118 114.832,113.355 123.490 C 112.186 126.179,110.879 129.149,110.451 130.090 C 110.022 131.030,108.735 133.960,107.590 136.600 C 106.445 139.240,104.899 142.709,104.154 144.309 C 103.409 145.909,102.800 147.291,102.800 147.381 C 102.800 147.471,102.245 148.772,101.567 150.272 C 100.889 151.772,100.010 153.720,99.613 154.600 C 99.217 155.480,98.417 157.331,97.836 158.713 C 97.254 160.095,96.268 162.345,95.644 163.713 C 95.020 165.081,93.923 167.550,93.207 169.200 C 92.491 170.850,91.487 173.100,90.976 174.200 C 90.464 175.300,89.151 178.270,88.057 180.800 C 83.798 190.648,81.601 195.634,80.229 198.566 C 79.443 200.244,78.800 201.699,78.800 201.798 C 78.800 201.897,77.341 205.268,75.557 209.289 C 73.773 213.310,71.960 217.410,71.528 218.400 C 71.096 219.390,70.493 220.750,70.189 221.423 C 69.105 223.819,66.800 229.274,66.800 229.443 C 66.800 229.538,70.685 229.567,75.433 229.508 L 84.065 229.400 90.072 215.298 L 96.078 201.195 126.676 201.298 L 157.273 201.400 159.245 206.000 C 160.330 208.530,161.484 211.167,161.809 211.860 C 162.134 212.554,162.400 213.218,162.400 213.337 C 162.400 213.455,163.120 215.104,164.000 217.000 C 164.880 218.896,165.600 220.537,165.600 220.646 C 165.600 220.755,165.941 221.599,166.358 222.522 C 166.774 223.445,167.652 225.391,168.308 226.846 C 169.938 230.461,171.176 230.935,171.194 227.951 C 171.214 224.556,174.518 214.870,177.348 209.910 C 178.635 207.654,178.906 206.929,178.352 207.226 C 177.731 207.558,177.527 207.465,177.234 206.716 C 176.650 205.221,173.739 198.513,171.804 194.200 C 171.508 193.540,170.330 190.840,169.187 188.200 C 168.044 185.560,166.499 182.091,165.754 180.491 C 165.009 178.891,164.400 177.509,164.400 177.419 C 164.400 177.329,163.845 176.028,163.167 174.528 C 160.716 169.105,160.476 168.562,159.445 166.110 C 158.869 164.740,157.935 162.580,157.369 161.310 C 156.803 160.039,156.101 158.460,155.808 157.800 C 155.516 157.140,154.112 153.990,152.688 150.800 C 151.265 147.610,149.335 143.200,148.399 141.000 C 147.464 138.800,146.204 135.920,145.600 134.600 C 144.996 133.280,143.768 130.490,142.871 128.400 C 141.975 126.310,140.003 121.810,138.491 118.400 L 135.740 112.200 127.370 112.102 C 122.767 112.048,118.812 112.138,118.583 112.302 M127.719 132.900 C 128.257 134.055,129.366 136.530,130.184 138.400 C 131.002 140.270,131.993 142.520,132.386 143.400 C 132.779 144.280,134.407 148.060,136.003 151.800 C 137.599 155.540,139.397 159.680,140.000 161.000 C 140.603 162.320,142.401 166.460,143.997 170.200 C 146.900 177.001,147.247 177.795,149.585 182.966 C 150.559 185.121,150.721 185.804,150.317 186.059 C 149.401 186.641,103.206 186.481,102.982 185.896 C 102.826 185.490,106.325 176.848,109.012 171.000 C 109.315 170.340,109.913 168.900,110.339 167.800 C 110.765 166.700,111.597 164.720,112.187 163.400 C 112.777 162.080,113.528 160.370,113.857 159.600 C 114.583 157.897,114.857 157.271,116.218 154.200 C 116.803 152.880,117.717 150.644,118.249 149.232 C 118.780 147.819,119.359 146.469,119.534 146.232 C 119.708 145.994,120.361 144.540,120.985 143.000 C 121.608 141.460,122.600 139.120,123.190 137.800 C 123.779 136.480,124.685 134.365,125.204 133.100 C 126.359 130.283,126.496 130.272,127.719 132.900 M186.101 237.400 "
        ></path>
    </g>
</svg>